<svg xmlns="http://www.w3.org/2000/svg" viewBox="0 0 40 40" fill="none">
  <rect width="40" height="40" rx="8" fill="#4A154B"/>
  <g transform="translate(8,8)">
    <path d="M5.5 15a2.5 2.5 0 0 1-2.5-2.5 2.5 2.5 0 0 1 2.5-2.5H8v2.5A2.5 2.5 0 0 1 5.5 15z" fill="#E01E5A"/>
    <path d="M8.5 12.5A2.5 2.5 0 0 1 11 10h7a2.5 2.5 0 0 1 0 5h-7a2.5 2.5 0 0 1-2.5-2.5z" fill="#E01E5A"/>
    <path d="M18.5 5a2.5 2.5 0 0 1 2.5 2.5 2.5 2.5 0 0 1-2.5 2.5H16V7.5A2.5 2.5 0 0 1 18.5 5z" fill="#36C5F0"/>
    <path d="M15.5 7.5A2.5 2.5 0 0 1 13 10V3a2.5 2.5 0 0 1 5 0v7a2.5 2.5 0 0 1-2.5 2.5z" fill="#36C5F0"/>
    <path d="M5 18.5A2.5 2.5 0 0 1 7.5 16H10v2.5a2.5 2.5 0 0 1-5 0z" fill="#2EB67D"/>
    <path d="M7.5 15.5A2.5 2.5 0 0 1 10 13v7a2.5 2.5 0 0 1-5 0v-7a2.5 2.5 0 0 1 2.5-2.5z" fill="#2EB67D"/>
    <path d="M18 21a2.5 2.5 0 0 1-2.5-2.5V16h2.5a2.5 2.5 0 0 1 0 5z" fill="#ECB22E"/>
    <path d="M15.5 16a2.5 2.5 0 0 1-2.5 2.5H6a2.5 2.5 0 0 1 0-5h7a2.5 2.5 0 0 1 2.5 2.5z" fill="#ECB22E"/>
  </g>
</svg>
